# xmcd
#
# Track frame offsets:
#	150
#	16986
#	28685
#	42206
#	58909
#	75906
#	93655
#	105277
#	119443
#	139008
#	153371
#	168931
#	182058
#	197076
#	215869
#
# Disc length: 3127 seconds
#
# Revision: 0
# Processed by: cddbd v1.4PL0 Copyright (c) Steve Scherf et al.
# Submitted via: audiograbber 1.82.01
#
DISCID=c50c350f
DTITLE=Garth Brooks - No Fences 2003
DYEAR=1900
DGENRE=
TTITLE0=If Tomorrow Never Comes
TTITLE1=Not Counting You
TTITLE2=Much Too Young
TTITLE3=The Dance
TTITLE4=The Thunder Rolls
TTITLE5=New Way to fly
TTITLE6=Two of a kind, workin' on a full House
TTITLE7=Victim of the game
TTITLE8=Friends in low places
TTITLE9=Wild horses
TTITLE10=Unanswered prayers
TTITLE11=Same old story
TTITLE12=Mr. Blue
TTITLE13=Wolves
TTITLE14=This ain't Tennessee
EXTD=
EXTT0=
EXTT1=
EXTT2=
EXTT3=
EXTT4=
EXTT5=
EXTT6=
EXTT7=
EXTT8=
EXTT9=
EXTT10=
EXTT11=
EXTT12=
EXTT13=
EXTT14=
PLAYORDER=
